Coordinates
version=1
nRows=10
nColumns=40
inDegrees=yes

Units are S.I. units (second, meters, Newtons, ...)
If the header above contains a line with 'inDegrees', this indicates whether rotational values are in degrees (yes) or radians (no).

endheader
time	pelvis_tilt	pelvis_list	pelvis_rotation	pelvis_tx	pelvis_ty	pelvis_tz	hip_flexion_r	hip_adduction_r	hip_rotation_r	knee_angle_r	knee_angle_r_beta	ankle_angle_r	subtalar_angle_r	mtp_angle_r	hip_flexion_l	hip_adduction_l	hip_rotation_l	knee_angle_l	knee_angle_l_beta	ankle_angle_l	subtalar_angle_l	mtp_angle_l	lumbar_extension	lumbar_bending	lumbar_rotation	arm_flex_r	arm_add_r	arm_rot_r	elbow_flex_r	pro_sup_r	wrist_flex_r	wrist_dev_r	arm_flex_l	arm_add_l	arm_rot_l	elbow_flex_l	pro_sup_l	wrist_flex_l	wrist_dev_l
      7.40000000	      4.71053545	     -5.25544526	    179.71239978	      0.32710694	      0.69527800	     -0.65111563	     65.12770827	     -4.86238981	     12.81871696	     81.96712535	      1.43059622	     30.98613316	      0.00000000	      0.00000000	     63.82956252	    -17.69059219	     -9.71085749	     81.79577620	      1.42760561	     19.29935257	      0.00000000	      0.00000000	    -63.54880613	     -4.76438905	     -4.74718656	     57.71297504	     -0.07658595	     28.12465166	      2.70285191	     11.40415268	      0.00000000	      0.00000000	     66.54954550	    -11.10812126	     86.01430657	      4.56855784	     86.37050506	      0.00000000	      0.00000000
      7.40500000	      4.66569078	     -5.27792046	    179.70949608	      0.32707596	      0.69554734	     -0.65092634	     64.99908393	     -4.92616165	     12.80102363	     81.86702335	      1.42884911	     31.03309838	      0.00000000	      0.00000000	     63.74170792	    -17.61555937	     -9.69400672	     81.76188511	      1.42701410	     19.32017264	      0.00000000	      0.00000000	    -63.59429917	     -4.74051839	     -4.76368452	     57.77010476	     -0.04475739	     27.99960699	      2.68665785	     11.15324342	      0.00000000	      0.00000000	     66.56367577	    -11.12571716	     85.96314569	      4.65830503	     86.30623037	      0.00000000	      0.00000000
      7.41000000	      4.62817298	     -5.28144514	    179.70609337	      0.32688018	      0.69565849	     -0.65075205	     64.99413437	     -4.99392912	     12.75481880	     81.90806988	      1.42956550	     30.99040367	      0.00000000	      0.00000000	     63.68604703	    -17.58045176	     -9.69759448	     81.77208145	      1.42719206	     19.34368114	      0.00000000	      0.00000000	    -63.60598967	     -4.71518032	     -4.77819336	     57.77484622	     -0.04122875	     27.91140848	      2.68994657	     11.00233793	      0.00000000	      0.00000000	     66.53217254	    -11.14444717	     85.94481073	      4.67345220	     86.27895645	      0.00000000	      0.00000000
      7.41500000	      4.62604887	     -5.29413388	    179.69205964	      0.32670471	      0.69572531	     -0.65068860	     64.99290129	     -5.02343121	     12.74567379	     81.91211359	      1.42963608	     30.97284327	      0.00000000	      0.00000000	     63.65492966	    -17.59565050	     -9.75559183	     81.77132478	      1.42717885	     19.36464514	      0.00000000	      0.00000000	    -63.58803427	     -4.71343513	     -4.79391313	     57.77266164	     -0.02273759	     27.85662709	      2.69885987	     10.91288901	      0.00000000	      0.00000000	     66.50786946	    -11.15150510	     85.93616959	      4.68341579	     86.26423301	      0.00000000	      0.00000000
      7.42000000	      4.61370278	     -5.29629596	    179.69100332	      0.32656818	      0.69589650	     -0.65046431	     64.96779980	     -5.09179104	     12.71449518	     81.89644993	      1.42936270	     30.94680990	      0.00000000	      0.00000000	     63.62173484	    -17.53545181	     -9.72398493	     81.76274537	      1.42702911	     19.38616094	      0.00000000	      0.00000000	    -63.59169194	     -4.67784466	     -4.82381707	     57.79628221	     -0.01119411	     27.80139661	      2.71352822	     10.82113960	      0.00000000	      0.00000000	     66.47623647	    -11.15404498	     85.92986045	      4.70268641	     86.25162299	      0.00000000	      0.00000000
      7.42500000	      4.58687054	     -5.26200872	    179.69991336	      0.32650124	      0.69615174	     -0.65016016	     64.90784845	     -5.13266546	     12.65515141	     81.84133025	      1.42840068	     30.90849827	      0.00000000	      0.00000000	     63.58858031	    -17.44442567	     -9.60666567	     81.73070533	      1.42646991	     19.42175260	      0.00000000	      0.00000000	    -63.61996248	     -4.60153745	     -4.84636478	     57.84984794	     -0.00483495	     27.73440975	      2.72963417	     10.70070521	      0.00000000	      0.00000000	     66.46014815	    -11.16164332	     85.91404063	      4.70856336	     86.23231293	      0.00000000	      0.00000000
      7.43000000	      4.56471899	     -5.22982324	    179.68757153	      0.32641211	      0.69637357	     -0.64988580	     64.84784033	     -5.15539566	     12.60916014	     81.79203349	      1.42754029	     30.88497572	      0.00000000	      0.00000000	     63.55466413	    -17.44001307	     -9.59722552	     81.72972484	      1.42645280	     19.44862238	      0.00000000	      0.00000000	    -63.63297580	     -4.55243467	     -4.82616735	     57.89374624	     -0.00159646	     27.69157287	      2.73527044	     10.61544092	      0.00000000	      0.00000000	     66.45259709	    -11.16113687	     85.90297850	      4.70358488	     86.21876044	      0.00000000	      0.00000000
      7.43500000	      4.56153242	     -5.19117141	    179.69714901	      0.32628276	      0.69666831	     -0.64959883	     64.79084009	     -5.19373330	     12.55021608	     81.71637597	      1.42621981	     30.86092000	      0.00000000	      0.00000000	     63.53405446	    -17.35595294	     -9.46940442	     81.69088757	      1.42577496	     19.47673942	      0.00000000	      0.00000000	    -63.64659961	     -4.47216393	     -4.82078437	     57.93687861	     -0.00117538	     27.62823108	      2.73984352	     10.49818903	      0.00000000	      0.00000000	     66.43505791	    -11.14179576	     85.89192271	      4.70059853	     86.20420565	      0.00000000	      0.00000000
      7.44000000	      4.54982611	     -5.12440247	    179.69927353	      0.32621228	      0.69692994	     -0.64930657	     64.72638820	     -5.21241989	     12.46008798	     81.64248571	      1.42493019	     30.83383823	      0.00000000	      0.00000000	     63.52388669	    -17.28553288	     -9.30623816	     81.66228073	      1.42527567	     19.52768514	      0.00000000	      0.00000000	    -63.66272394	     -4.38275539	     -4.78538670	     58.00340630	      0.01498799	     27.54170202	      2.74956604	     10.32788003	      0.00000000	      0.00000000	     66.42563078	    -11.12464699	     85.88042512	      4.68068720	     86.18307820	      0.00000000	      0.00000000
      7.44500000	      4.56208345	     -5.08184961	    179.68519379	      0.32608198	      0.69719258	     -0.64903090	     64.69231241	     -5.22884799	     12.40276953	     81.56491772	      1.42357637	     30.81444367	      0.00000000	      0.00000000	     63.51735408	    -17.26933731	     -9.27106661	     81.64437418	      1.42496315	     19.55678224	      0.00000000	      0.00000000	    -63.65503463	     -4.32121793	     -4.75354704	     58.02884352	      0.01193308	     27.49571144	      2.74689862	     10.23707393	      0.00000000	      0.00000000	     66.41081053	    -11.10440571	     85.87575073	      4.67467176	     86.17310883	      0.00000000	      0.00000000
